<mxfile host="Electron" modified="2024-05-19T16:58:14.449Z" agent="Mozilla/5.0 (Windows NT 10.0; Win64; x64) AppleWebKit/537.36 (KHTML, like Gecko) draw.io/24.4.0 Chrome/120.0.6099.109 Electron/28.1.0 Safari/537.36" etag="SshKh7Ra_VK9nbI9QzzY" version="24.4.0" type="device">
  <diagram id="SdhLqG5c9NAtiB7OmFhV" name="Страница — 1">
    <mxGraphModel dx="1424" dy="1797" grid="1" gridSize="10" guides="1" tooltips="1" connect="1" arrows="1" fold="1" page="0" pageScale="1" pageWidth="827" pageHeight="1169" background="none" math="0" shadow="0">
      <root>
        <mxCell id="0" />
        <mxCell id="1" parent="0" />
        <mxCell id="node9" value="&lt;p style=&quot;margin:0px;margin-top:4px;text-align:center;&quot;&gt;&lt;b&gt;DocumentService&lt;/b&gt;&lt;/p&gt;&lt;hr size=&quot;1&quot;&gt;&lt;p style=&quot;margin:0 0 0 4px;line-height:1.6;&quot;&gt;&lt;/p&gt;&lt;p style=&quot;margin:0 0 0 4px;line-height:1.6;&quot;&gt;- findUserServiceDocumentByIdIn(Collection&amp;lt;Long&amp;gt;, UserEntity): List&amp;lt;UUID&amp;gt;&lt;br&gt;+ save(DocumentEntity): DocumentEntity&lt;br&gt;- getConditionByObjectType(EntityCondition, Long): EntityCondition&lt;br&gt;+ count(EntityCondition): int&lt;br&gt;+ getResultDocuments(SortFields, LimitOffset, EntityCondition): List&amp;lt;DocumentEntity&amp;gt;&lt;br&gt;- getArchiveDocumentsCondition(EntityCondition): EntityCondition&lt;br&gt;+ deleteById(UUID): void&lt;br&gt;+ getArchiveDocuments(SortFields, LimitOffset, EntityCondition): List&amp;lt;DocumentEntity&amp;gt;&lt;br&gt;- getRequestIdsFromApplicationByUser(UserEntity): List&amp;lt;Long&amp;gt;&lt;br&gt;+ getById(UUID): DocumentEntity&lt;br&gt;- registerListeners(): void&lt;br&gt;+ countArchiveDocuments(EntityCondition): int&lt;br&gt;- getConditionByDocumentIdsIn(List&amp;lt;Object&amp;gt;, EntityCondition): EntityCondition&lt;br&gt;+ find(EntityCondition, SortFields, LimitOffset): List&amp;lt;DocumentEntity&amp;gt;&lt;br&gt;- getResultDocumentsCondition(EntityCondition): EntityCondition&lt;br&gt;+ countResultDocuments(EntityCondition): int&lt;/p&gt;" style="verticalAlign=top;align=left;overflow=fill;fontSize=14;fontFamily=Helvetica;html=1;rounded=0;shadow=0;comic=0;labelBackgroundColor=none;strokeWidth=1;" parent="1" vertex="1">
          <mxGeometry x="1550" y="670" width="491" height="397" as="geometry" />
        </mxCell>
        <mxCell id="node1" value="&lt;p style=&quot;margin:0px;margin-top:4px;text-align:center;&quot;&gt;&lt;b&gt;DocxGeneratorService&lt;/b&gt;&lt;/p&gt;&lt;hr size=&quot;1&quot;/&gt;&lt;p style=&quot;margin:0 0 0 4px;line-height:1.6;&quot;&gt;- requestService: RequestService&lt;br/&gt;- docxValsGeneratorServices: List&amp;lt;DocxValsGeneratorService&amp;gt;&lt;br/&gt;- customProperties: CustomProperties&lt;br/&gt;- customMetodService: CustomMetodService&lt;br/&gt;- filesProperties: FilesProperties&lt;br/&gt;- THYMLEAF_ENGINE: SpringTemplateEngine&lt;br/&gt;- storedFileRepository: StoredFileRepository&lt;br/&gt;- fileService: FilesService&lt;br/&gt;- requestDocumentService: RequestDocumentService&lt;br/&gt;- groovyScriptService: GroovyScriptService&lt;/p&gt;&lt;hr size=&quot;1&quot;/&gt;&lt;p style=&quot;margin:0 0 0 4px;line-height:1.6;&quot;&gt;# getDocxTemplateFile(String): InputStream&lt;br/&gt;- addDocumetAttributes(Map&amp;lt;String, Object&amp;gt;, DocumentEntity): void&lt;br/&gt;- addRequestAttributes(Map&amp;lt;String, Object&amp;gt;, RequestEntity): void&lt;br/&gt;- getRequestDocumentDistributedByTypes(List&amp;lt;RequestDocumentEntity&amp;gt;, String): Map&amp;lt;String, List&amp;lt;DocumentEntity&amp;gt;&amp;gt;&lt;br/&gt;- addImgGisObject(Map&amp;lt;String, Object&amp;gt;, GisObject): void&lt;br/&gt;- addCoordGisObject(Map&amp;lt;String, Object&amp;gt;, GisObject, String): void&lt;br/&gt;+ convertWordToPdf(XWPFDocument, String): File&lt;br/&gt;- addGridGisIntersection(Map&amp;lt;String, Object&amp;gt;, Object, String): void&lt;br/&gt;- addRequestVals(Map&amp;lt;String, Object&amp;gt;, RequestEntity): void&lt;br/&gt;- addOtherAttributes(Map&amp;lt;String, Object&amp;gt;): void&lt;br/&gt;+ convertWordToPdf(File): File&lt;br/&gt;+ generateDocxByDocument(RequestEntity, ServiceDocumentEntity, DocumentEntity): File&lt;br/&gt;- addRequestValsOld(Map&amp;lt;String, Object&amp;gt;, RequestEntity): void&lt;br/&gt;- addServices(Map&amp;lt;String, Object&amp;gt;): void&lt;br/&gt;- addValue(Map&amp;lt;String, Object&amp;gt;, Object, String, String): void&lt;br/&gt;- addDocuments(Map&amp;lt;String, Object&amp;gt;, RequestEntity, DocumentEntity): void&lt;br/&gt;- generateDocxTemplate(String, Map&amp;lt;String, Object&amp;gt;, OutputStream): void&lt;br/&gt;+ generateDocxByDocument(RequestDocumentEntity): File&lt;br/&gt;+ convertWordToPdf(XWPFDocument): File&lt;/p&gt;" style="verticalAlign=top;align=left;overflow=fill;fontSize=14;fontFamily=Helvetica;html=1;rounded=0;shadow=0;comic=0;labelBackgroundColor=none;strokeWidth=1;" parent="1" vertex="1">
          <mxGeometry x="850" y="-160" width="549" height="671" as="geometry" />
        </mxCell>
        <mxCell id="node6" value="&lt;p style=&quot;margin:0px;margin-top:4px;text-align:center;&quot;&gt;&lt;b&gt;FileUtilsComponent&lt;/b&gt;&lt;/p&gt;&lt;hr size=&quot;1&quot;/&gt;&lt;p style=&quot;margin:0 0 0 4px;line-height:1.6;&quot;&gt;- filesProperties: FilesProperties&lt;br/&gt;- filesService: FilesService&lt;/p&gt;&lt;hr size=&quot;1&quot;/&gt;&lt;p style=&quot;margin:0 0 0 4px;line-height:1.6;&quot;&gt;+ saveStoreFile(File, String): File&lt;br/&gt;+ createStoredFileByFile(File): StoredFileEntity&lt;br/&gt;+ checkPath(String): void&lt;br/&gt;+ addDocFileInDocument(File, StoredFileEntity, DocumentEntity): void&lt;br/&gt;+ getAbsolutePath(String): String&lt;br/&gt;+ createStoredFileByFile(File, String): StoredFileEntity&lt;br/&gt;- prepareFile(String): File&lt;/p&gt;" style="verticalAlign=top;align=left;overflow=fill;fontSize=14;fontFamily=Helvetica;html=1;rounded=0;shadow=0;comic=0;labelBackgroundColor=none;strokeWidth=1;" parent="1" vertex="1">
          <mxGeometry x="280" y="790" width="403" height="231" as="geometry" />
        </mxCell>
        <mxCell id="node8" value="&lt;p style=&quot;margin:0px;margin-top:4px;text-align:center;&quot;&gt;&lt;b&gt;InteragencyQueryRepository&lt;/b&gt;&lt;/p&gt;&lt;hr size=&quot;1&quot;/&gt;&lt;p style=&quot;margin:0 0 0 4px;line-height:1.6;&quot;&gt;+ getEntityClass(): Class&amp;lt;InteragencyQueryEntity&amp;gt;&lt;/p&gt;" style="verticalAlign=top;align=left;overflow=fill;fontSize=14;fontFamily=Helvetica;html=1;rounded=0;shadow=0;comic=0;labelBackgroundColor=none;strokeWidth=1;" parent="1" vertex="1">
          <mxGeometry x="173" y="-770" width="297" height="58" as="geometry" />
        </mxCell>
        <mxCell id="node2" value="&lt;p style=&quot;margin:0px;margin-top:4px;text-align:center;&quot;&gt;&lt;b&gt;PersonService&lt;/b&gt;&lt;/p&gt;&lt;br&gt;&lt;hr size=&quot;1&quot;&gt;&lt;p style=&quot;margin:0 0 0 4px;line-height:1.6;&quot;&gt;+ getById(Long): PersonEntity&lt;br&gt;+ save(PersonEntity): PersonEntity&lt;br&gt;+ delete(Long): void&lt;br&gt;+ find(LimitOffset, EntityCondition, SortFields): List&amp;lt;PersonEntity&amp;gt;&lt;br&gt;+ getCurrentUserPerson(): PersonEntity&lt;br&gt;+ count(EntityCondition): int&lt;br&gt;- registerListeners(): void&lt;/p&gt;" style="verticalAlign=top;align=left;overflow=fill;fontSize=14;fontFamily=Helvetica;html=1;rounded=0;shadow=0;comic=0;labelBackgroundColor=none;strokeWidth=1;" parent="1" vertex="1">
          <mxGeometry y="-680" width="382" height="218" as="geometry" />
        </mxCell>
        <mxCell id="node0" value="&lt;p style=&quot;margin:0px;margin-top:4px;text-align:center;&quot;&gt;&lt;b&gt;RequestController&lt;/b&gt;&lt;/p&gt;&lt;hr size=&quot;1&quot;&gt;&lt;p style=&quot;margin:0 0 0 4px;line-height:1.6;&quot;&gt;&lt;/p&gt;&lt;p style=&quot;margin:0 0 0 4px;line-height:1.6;&quot;&gt;+ getRequestDocuments(Long, EntityCondition, SortFields, LimitOffset): List&amp;lt;RequestDocumentDTO&amp;gt;&lt;br&gt;+ updateRequestDocument(Long, String, RequestDocumentDTO): RequestDocumentDTO&lt;br&gt;+ getRequest(Long): RequestDTO&lt;br&gt;+ changeRequestStatus(Long, Long, Boolean): RequestDTO&lt;br&gt;+ createFinalDocument(Long, Long): RequestDocumentDTO&lt;br&gt;+ createRequest(RequestDTO): RequestDTO&lt;br&gt;+ updateRequest(Long, RequestDTO): RequestDTO&lt;br&gt;+ getNextStatusPathsFromRequest(Long, Optional&amp;lt;Long&amp;gt;): List&amp;lt;StatusPathDTO&amp;gt;&lt;br&gt;+ deleteFinalRequestDocuments(Long): void&lt;br&gt;+ deleteRequest(Long): void&lt;br&gt;+ deleteRequestDocuments(Long, String): void&lt;br&gt;+ getDocumentAsExternalFormat(Long, String, HttpServletResponse): void&lt;br&gt;+ generateAndAttachDocumentFinalAsExternalFormat(Long, Long, String): RequestDocumentDTO&lt;br&gt;+ createFinalRequestDocuments(Long, RequestDocumentDTO): RequestDocumentDTO&lt;br&gt;+ getFinalRequestDocument(Long, String): RequestDocumentDTO&lt;br&gt;+ createRequestDocuments(Long, RequestDocumentDTO): RequestDocumentDTO&lt;br&gt;+ generateAndAttachDocumentFinalAsExternalFormat(Long, String): RequestDocumentDTO&lt;br&gt;+ updateFinalRequestDocument(Long, String, RequestDocumentDTO): RequestDocumentDTO&lt;br&gt;+ getDocumentFinalAsExternalFormat(Long, Long, String, HttpServletResponse): void&lt;br&gt;+ updateRequestDocument(RequestEntity, String, RequestDocumentDTO): RequestDocumentDTO&lt;br&gt;+ getRequests(EntityCondition, SortFields, LimitOffset, String, Long): ResponseListDTO&amp;lt;RequestDTO&amp;gt;&lt;br&gt;+ getRequestDocument(Long, String): RequestDocumentDTO&lt;br&gt;+ getDocumentFinalAsExternalFormat(Long, String, HttpServletResponse): void&lt;br&gt;+ checkRequest(Long): List&amp;lt;String&amp;gt;&lt;br&gt;+ deleteFinalRequestDocuments(Long, String): void&lt;br&gt;+ getQueryDocument(Long, Long, String): RequestDocumentDTO&lt;br&gt;+ getFinalRequestDocuments(Long): List&amp;lt;RequestDocumentDTO&amp;gt;&lt;br&gt;+ generateAndAttachDocumentAsExternalFormat(Long, String): RequestDocumentDTO&lt;/p&gt;" style="verticalAlign=top;align=left;overflow=fill;fontSize=14;fontFamily=Helvetica;html=1;rounded=0;shadow=0;comic=0;labelBackgroundColor=none;strokeWidth=1;" parent="1" vertex="1">
          <mxGeometry x="240" y="-40" width="528" height="670" as="geometry" />
        </mxCell>
        <mxCell id="node7" value="&lt;p style=&quot;margin:0px;margin-top:4px;text-align:center;&quot;&gt;&lt;b&gt;RequestDocumentService&lt;/b&gt;&lt;/p&gt;&lt;hr size=&quot;1&quot;/&gt;&lt;p style=&quot;margin:0 0 0 4px;line-height:1.6;&quot;&gt;- requestService: RequestService&lt;br/&gt;- requestDocumentRepository: RequestDocumentRepository&lt;br/&gt;- serviceDocumentService: ServiceDocumentService&lt;br/&gt;- sequenceGeneratorService: SequenceGeneratorService&lt;br/&gt;- documentService: DocumentService&lt;/p&gt;&lt;hr size=&quot;1&quot;/&gt;&lt;p style=&quot;margin:0 0 0 4px;line-height:1.6;&quot;&gt;+ createEmptyResultDocument(Long, Long): RequestDocumentEntity&lt;br/&gt;+ addResultDocumentToRequest(RequestEntity, DocumentEntity): void&lt;br/&gt;+ save(RequestDocumentEntity): RequestDocumentEntity&lt;br/&gt;+ findByRequestId(Long): List&amp;lt;RequestDocumentEntity&amp;gt;&lt;br/&gt;+ createRequestDocument(RequestEntity, DocumentEntity, ServiceDocumentEntity): RequestDocumentEntity&lt;br/&gt;- checkNum(RequestDocumentEntity): void&lt;br/&gt;+ getDocumentFileName(RequestEntity, ServiceDocumentEntity, DocumentEntity): String&lt;br/&gt;+ findByDocumentId(UUID): RequestDocumentEntity&lt;br/&gt;+ createRequestDocument(Long, UUID, Long): RequestDocumentEntity&lt;br/&gt;- getResponseDocFileNameByRegExp(String): String&lt;br/&gt;+ deleteById(UUID): void&lt;/p&gt;" style="verticalAlign=top;align=left;overflow=fill;fontSize=14;fontFamily=Helvetica;html=1;rounded=0;shadow=0;comic=0;labelBackgroundColor=none;strokeWidth=1;" parent="1" vertex="1">
          <mxGeometry x="897" y="1095" width="486" height="385" as="geometry" />
        </mxCell>
        <mxCell id="node4" value="&lt;p style=&quot;margin:0px;margin-top:4px;text-align:center;&quot;&gt;&lt;b&gt;RequestService&lt;/b&gt;&lt;/p&gt;&lt;hr size=&quot;1&quot;&gt;&lt;p style=&quot;margin:0 0 0 4px;line-height:1.6;&quot;&gt;&lt;/p&gt;&lt;p style=&quot;margin:0 0 0 4px;line-height:1.6;&quot;&gt;+ findAll(EntityCondition, SortFields, LimitOffset): List&amp;lt;RequestEntity&amp;gt;&lt;br&gt;+ checkAccessForStatusPath(StatusPathEntity, PermissionType, UserEntity, SystemUser): boolean&lt;br&gt;+ getByRegisterNumberAndRegisterDate(String, LocalDate): RequestEntity&lt;br&gt;+ saveAndFlush(RequestEntity): RequestEntity&lt;br&gt;+ count(RequestRegistryEnum, StatusStageEnum, EntityCondition): int&lt;br&gt;+ checkAccess(RequestEntity, PermissionType): boolean&lt;br&gt;+ checkAccessForDepartment(DepartmentEntity, PermissionType, SystemUser): boolean&lt;br&gt;+ delete(RequestEntity): void&lt;br&gt;+ checkAccessForStatus(StatusEntity, PermissionType, UserEntity, SystemUser): boolean&lt;br&gt;+ setDefaultStatus(RequestEntity): void&lt;br&gt;+ countByServiceId(Long): int&lt;br&gt;+ checkAccessForSection(StatusRequestSectionEntity, PermissionType, UserEntity, SystemUser): boolean&lt;br&gt;+ getByRegisterNumber(String): RequestEntity&lt;br&gt;+ findByDocumentId(UUID): RequestEntity&lt;br&gt;+ checkAccessForProvider(ProviderEntity, PermissionType, SystemUser): boolean&lt;br&gt;+ getRequestDocuments(Long): List&amp;lt;RequestDocumentEntity&amp;gt;&lt;br&gt;+ checkAccessForService(ServiceEntity, PermissionType, PrivilegeContainer): boolean&lt;br&gt;+ calculateByWorkingDays(RequestEntity, ServiceDurationEntity): void&lt;br&gt;+ count(EntityCondition): int&lt;br&gt;+ changeStatus(RequestEntity, Long, Boolean, Boolean): void&lt;br&gt;+ save(RequestEntity): RequestEntity&lt;br&gt;+ getRequests(RequestRegistryEnum, StatusStageEnum, EntityCondition, SortFields, LimitOffset): List&amp;lt;RequestEntity&amp;gt;&lt;br&gt;+ changeStatus(RequestEntity, Long, Boolean): void&lt;br&gt;+ checkAccess(RequestEntity, PermissionType, SystemUser): boolean&lt;br&gt;+ deleteById(Long): void&lt;br&gt;+ getForbidden(RequestEntity): Integer&lt;br&gt;+ getById(Long): RequestEntity&lt;br&gt;+ calculateEndDate(RequestEntity): void&lt;br&gt;+ calculateByCalendarDays(RequestEntity, ServiceDurationEntity): void&lt;br&gt;+ getRequestDocuments(Long, EntityCondition, SortFields, LimitOffset): List&amp;lt;RequestDocumentEntity&amp;gt;&lt;br&gt;+ checkAccessForSection(RequestEntity, RequestSection, PermissionType): boolean&lt;br&gt;+ checkRequest(RequestEntity): List&amp;lt;String&amp;gt;&lt;br&gt;+ existByRegNumber(RequestEntity, String): boolean&lt;br&gt;+ getForbiddenSections(RequestEntity): Map&amp;lt;String, Integer&amp;gt;&lt;br&gt;&lt;/p&gt;" style="verticalAlign=top;align=left;overflow=fill;fontSize=14;fontFamily=Helvetica;html=1;rounded=0;shadow=0;comic=0;labelBackgroundColor=none;strokeWidth=1;" parent="1" vertex="1">
          <mxGeometry x="1450" y="-960" width="516" height="802" as="geometry" />
        </mxCell>
        <mxCell id="node3" value="&lt;p style=&quot;margin:0px;margin-top:4px;text-align:center;&quot;&gt;&lt;b&gt;ServiceDocumentService&lt;/b&gt;&lt;/p&gt;&lt;hr size=&quot;1&quot;/&gt;&lt;p style=&quot;margin:0 0 0 4px;line-height:1.6;&quot;&gt;- serviceDocRepository: ServiceDocumentRepository&lt;br/&gt;- scriptEventListener: ScriptEventListener&lt;/p&gt;&lt;hr size=&quot;1&quot;/&gt;&lt;p style=&quot;margin:0 0 0 4px;line-height:1.6;&quot;&gt;+ getServiceDocuments(Long, List&amp;lt;DocumentCategory&amp;gt;): List&amp;lt;ServiceDocumentEntity&amp;gt;&lt;br/&gt;+ update(ServiceDocumentEntity): ServiceDocumentEntity&lt;br/&gt;+ createServiceDocument(ServiceDocumentEntity): ServiceDocumentEntity&lt;br/&gt;+ getServiceDocuments(Long, EntityCondition, SortFields, LimitOffset): List&amp;lt;ServiceDocumentEntity&amp;gt;&lt;br/&gt;+ getServiceDocuments(Long, List&amp;lt;DocumentCategory&amp;gt;, EntityCondition, SortFields, LimitOffset): List&amp;lt;ServiceDocumentEntity&amp;gt;&lt;br/&gt;+ getAvailableServiceDocuments(Long, List&amp;lt;DocumentCategory&amp;gt;, SortFields): List&amp;lt;ServiceDocumentEntity&amp;gt;&lt;br/&gt;+ getServiceDocuments(EntityCondition, SortFields, LimitOffset): List&amp;lt;ServiceDocumentEntity&amp;gt;&lt;br/&gt;+ findById(Long): ServiceDocumentEntity&lt;br/&gt;+ getServiceDocuments(Long): List&amp;lt;ServiceDocumentEntity&amp;gt;&lt;br/&gt;+ deleteById(Long): void&lt;br/&gt;- registerListeners(): void&lt;/p&gt;" style="verticalAlign=top;align=left;overflow=fill;fontSize=14;fontFamily=Helvetica;html=1;rounded=0;shadow=0;comic=0;labelBackgroundColor=none;strokeWidth=1;" parent="1" vertex="1">
          <mxGeometry x="878" y="686" width="524" height="319" as="geometry" />
        </mxCell>
        <mxCell id="node5" value="&lt;p style=&quot;margin:0px;margin-top:4px;text-align:center;&quot;&gt;&lt;b&gt;ServiceService&lt;/b&gt;&lt;/p&gt;&lt;hr size=&quot;1&quot;/&gt;&lt;p style=&quot;margin:0 0 0 4px;line-height:1.6;&quot;&gt;- serviceCategoryRepository: ServiceCategoryRepository&lt;br/&gt;- providerService: ProviderService&lt;br/&gt;- requestService: RequestService&lt;br/&gt;- serviceRepository: ServiceRepository&lt;br/&gt;- cardViewRepository: CardViewRepository&lt;br/&gt;- scriptEventListener: ScriptEventListener&lt;br/&gt;- objectTypeService: ObjectTypeService&lt;/p&gt;&lt;hr size=&quot;1&quot;/&gt;&lt;p style=&quot;margin:0 0 0 4px;line-height:1.6;&quot;&gt;+ getAvaliableServiceEntity(EntityCondition, SortFields, LimitOffset): List&amp;lt;ServiceEntity&amp;gt;&lt;br/&gt;+ updateService(ServiceEntity): ServiceEntity&lt;br/&gt;+ addProvider(Long, Long): ProviderEntity&lt;br/&gt;- isAvaliableService(ServiceEntity, SystemUser): boolean&lt;br/&gt;+ createService(ServiceEntity): ServiceEntity&lt;br/&gt;+ findByServiceId(Long): List&amp;lt;ProviderEntity&amp;gt;&lt;br/&gt;+ getService(Long): ServiceEntity&lt;br/&gt;+ changeState(Long, int): void&lt;br/&gt;+ count(EntityCondition): int&lt;br/&gt;+ isAvaliableService(ServiceEntity): boolean&lt;br/&gt;+ deleteService(Long): void&lt;br/&gt;- createCardView(ServiceEntity): CardViewEntity&lt;br/&gt;+ findByProviderId(Long, EntityCondition, SortFields, LimitOffset): List&amp;lt;ServiceEntity&amp;gt;&lt;br/&gt;- registerListeners(): void&lt;br/&gt;+ countByReglamentId(Long): int&lt;br/&gt;+ searchByText(String): List&amp;lt;ServiceEntity&amp;gt;&lt;br/&gt;+ find(EntityCondition, SortFields, LimitOffset): List&amp;lt;ServiceEntity&amp;gt;&lt;br/&gt;+ existById(Long): boolean&lt;/p&gt;" style="verticalAlign=top;align=left;overflow=fill;fontSize=14;fontFamily=Helvetica;html=1;rounded=0;shadow=0;comic=0;labelBackgroundColor=none;strokeWidth=1;" parent="1" vertex="1">
          <mxGeometry x="490" y="-780" width="453" height="583" as="geometry" />
        </mxCell>
        <mxCell id="node10" value="&lt;p style=&quot;margin:0px;margin-top:4px;text-align:center;&quot;&gt;&lt;b&gt;XlsxGeneratorService&lt;/b&gt;&lt;/p&gt;&lt;hr size=&quot;1&quot;&gt;&lt;p style=&quot;margin:0 0 0 4px;line-height:1.6;&quot;&gt;&lt;/p&gt;&lt;p style=&quot;margin:0 0 0 4px;line-height:1.6;&quot;&gt;- generateXlsxTemplate(String, Map&amp;lt;String, Object&amp;gt;, OutputStream): void&lt;br&gt;+ generateXlsxByDocumentRequestDocument(RequestDocumentEntity): File&lt;br&gt;# getDocxTemplateFile(String): InputStream&lt;br&gt;+ generateXlsxByDocumentRequestDocument(RequestEntity, ServiceDocumentEntity, DocumentEntity): File&lt;br&gt;- addRequestAttributes(Map&amp;lt;String, Object&amp;gt;, RequestEntity): void&lt;/p&gt;" style="verticalAlign=top;align=left;overflow=fill;fontSize=14;fontFamily=Helvetica;html=1;rounded=0;shadow=0;comic=0;labelBackgroundColor=none;strokeWidth=1;" parent="1" vertex="1">
          <mxGeometry x="-60" y="-406" width="436" height="209" as="geometry" />
        </mxCell>
        <mxCell id="edge15" value="" style="html=1;rounded=1;edgeStyle=orthogonalEdgeStyle;dashed=0;startArrow=diamondThinstartSize=12;endArrow=openThin;endSize=12;strokeColor=#595959;exitX=0.347;exitY=0.003;exitDx=0;exitDy=0;exitPerimeter=0;entryX=0.524;entryY=1;entryDx=0;entryDy=0;entryPerimeter=0;" parent="1" source="node9" target="node4" edge="1">
          <mxGeometry width="50" height="50" relative="1" as="geometry">
            <Array as="points">
              <mxPoint x="1720" y="100" />
              <mxPoint x="1722" y="100" />
              <mxPoint x="1722" y="-80" />
              <mxPoint x="1720" y="-80" />
              <mxPoint x="1720" y="-158" />
            </Array>
            <mxPoint x="1930" y="120" as="targetPoint" />
          </mxGeometry>
        </mxCell>
        <mxCell id="label95" value="requestService" style="edgeLabel;resizable=0;html=1;align=left;verticalAlign=top;strokeColor=default;" parent="edge15" vertex="1" connectable="0">
          <mxGeometry x="1740" y="-110" as="geometry" />
        </mxCell>
        <mxCell id="edge8" value="" style="html=1;rounded=1;edgeStyle=orthogonalEdgeStyle;dashed=0;startArrow=diamondThinstartSize=12;endArrow=openThin;endSize=12;strokeColor=#595959;exitX=0.473;exitY=1.000;exitDx=0;exitDy=0;entryX=0.000;entryY=0.500;entryDx=0;entryDy=0;" parent="1" source="node1" target="node7" edge="1">
          <mxGeometry width="50" height="50" relative="1" as="geometry">
            <Array as="points">
              <mxPoint x="1125" y="646" />
              <mxPoint x="857" y="646" />
              <mxPoint x="857" y="1287" />
            </Array>
          </mxGeometry>
        </mxCell>
        <mxCell id="label48" value="1" style="edgeLabel;resizable=0;html=1;align=left;verticalAlign=top;strokeColor=default;" parent="edge8" vertex="1" connectable="0">
          <mxGeometry x="1074" y="616" as="geometry" />
        </mxCell>
        <mxCell id="label52" value="1" style="edgeLabel;resizable=0;html=1;align=left;verticalAlign=top;strokeColor=default;" parent="edge8" vertex="1" connectable="0">
          <mxGeometry x="881" y="1268" as="geometry" />
        </mxCell>
        <mxCell id="label53" value="requestDocumentService" style="edgeLabel;resizable=0;html=1;align=left;verticalAlign=top;strokeColor=default;" parent="edge8" vertex="1" connectable="0">
          <mxGeometry x="857" y="1064" as="geometry" />
        </mxCell>
        <mxCell id="edge4" value="" style="html=1;rounded=1;edgeStyle=orthogonalEdgeStyle;dashed=0;startArrow=diamondThinstartSize=12;endArrow=openThin;endSize=12;strokeColor=#595959;exitX=0.5;exitY=0;exitDx=0;exitDy=0;entryX=0;entryY=0.775;entryDx=0;entryDy=0;entryPerimeter=0;" parent="1" source="node1" target="node4" edge="1">
          <mxGeometry width="50" height="50" relative="1" as="geometry">
            <Array as="points">
              <mxPoint x="1125" y="-240" />
              <mxPoint x="1124" y="-240" />
              <mxPoint x="1124" y="-339" />
              <mxPoint x="1440" y="-339" />
              <mxPoint x="1440" y="-338" />
            </Array>
          </mxGeometry>
        </mxCell>
        <mxCell id="label24" value="1" style="edgeLabel;resizable=0;html=1;align=left;verticalAlign=top;strokeColor=default;" parent="edge4" vertex="1" connectable="0">
          <mxGeometry x="1148" y="607" as="geometry" />
        </mxCell>
        <mxCell id="label28" value="1" style="edgeLabel;resizable=0;html=1;align=left;verticalAlign=top;strokeColor=default;" parent="edge4" vertex="1" connectable="0">
          <mxGeometry x="1370" y="-410" as="geometry" />
        </mxCell>
        <mxCell id="label29" value="requestService" style="edgeLabel;resizable=0;html=1;align=left;verticalAlign=top;strokeColor=default;" parent="edge4" vertex="1" connectable="0">
          <mxGeometry x="1190" y="-370" as="geometry" />
        </mxCell>
        <mxCell id="edge14" value="" style="html=1;rounded=1;edgeStyle=orthogonalEdgeStyle;dashed=0;startArrow=diamondThinstartSize=12;endArrow=openThin;endSize=12;strokeColor=#595959;entryX=-0.001;entryY=0.603;entryDx=0;entryDy=0;entryPerimeter=0;exitX=0.933;exitY=1.001;exitDx=0;exitDy=0;exitPerimeter=0;" parent="1" source="node0" target="node9" edge="1">
          <mxGeometry width="50" height="50" relative="1" as="geometry">
            <Array as="points">
              <mxPoint x="733" y="1094" />
              <mxPoint x="1456" y="1094" />
              <mxPoint x="1456" y="909" />
            </Array>
            <mxPoint x="740" y="650" as="sourcePoint" />
            <mxPoint x="1580" y="880" as="targetPoint" />
          </mxGeometry>
        </mxCell>
        <mxCell id="label84" value="1" style="edgeLabel;resizable=0;html=1;align=left;verticalAlign=top;strokeColor=default;" parent="edge14" vertex="1" connectable="0">
          <mxGeometry x="760" y="1035" as="geometry" />
        </mxCell>
        <mxCell id="label89" value="documentService" style="edgeLabel;resizable=0;html=1;align=left;verticalAlign=top;strokeColor=default;" parent="edge14" vertex="1" connectable="0">
          <mxGeometry x="1460" y="840" as="geometry" />
        </mxCell>
        <mxCell id="edge0" value="" style="html=1;rounded=1;edgeStyle=orthogonalEdgeStyle;dashed=0;startArrow=diamondThinstartSize=12;endArrow=openThin;endSize=12;strokeColor=#595959;exitX=1.000;exitY=0.500;exitDx=0;exitDy=0;entryX=0.000;entryY=0.500;entryDx=0;entryDy=0;" parent="1" source="node0" target="node1" edge="1">
          <mxGeometry width="50" height="50" relative="1" as="geometry">
            <Array as="points" />
          </mxGeometry>
        </mxCell>
        <mxCell id="label0" value="1" style="edgeLabel;resizable=0;html=1;align=left;verticalAlign=top;strokeColor=default;" parent="edge0" vertex="1" connectable="0">
          <mxGeometry x="774" y="250" as="geometry" />
        </mxCell>
        <mxCell id="label4" value="1" style="edgeLabel;resizable=0;html=1;align=left;verticalAlign=top;strokeColor=default;" parent="edge0" vertex="1" connectable="0">
          <mxGeometry x="848" y="250" as="geometry" />
        </mxCell>
        <mxCell id="label5" value="docxService" style="edgeLabel;resizable=0;html=1;align=left;verticalAlign=top;strokeColor=default;" parent="edge0" vertex="1" connectable="0">
          <mxGeometry x="780" y="140" as="geometry" />
        </mxCell>
        <mxCell id="edge7" value="" style="html=1;rounded=1;edgeStyle=orthogonalEdgeStyle;dashed=0;startArrow=diamondThinstartSize=12;endArrow=openThin;endSize=12;strokeColor=#595959;exitX=0.305;exitY=0.999;exitDx=0;exitDy=0;entryX=0.688;entryY=0.003;entryDx=0;entryDy=0;entryPerimeter=0;exitPerimeter=0;" parent="1" source="node0" target="node6" edge="1">
          <mxGeometry width="50" height="50" relative="1" as="geometry">
            <Array as="points">
              <mxPoint x="401" y="720" />
              <mxPoint x="557" y="720" />
            </Array>
          </mxGeometry>
        </mxCell>
        <mxCell id="label47" value="fileUtilsComponent" style="edgeLabel;resizable=0;html=1;align=left;verticalAlign=top;strokeColor=default;" parent="edge7" vertex="1" connectable="0">
          <mxGeometry x="440" y="686" as="geometry" />
        </mxCell>
        <mxCell id="edge12" value="" style="html=1;rounded=1;edgeStyle=orthogonalEdgeStyle;dashed=0;startArrow=diamondThinstartSize=12;endArrow=openThin;endSize=12;strokeColor=#595959;entryX=0.905;entryY=1.029;entryDx=0;entryDy=0;exitX=0.377;exitY=0;exitDx=0;exitDy=0;exitPerimeter=0;entryPerimeter=0;" parent="1" source="node0" target="node8" edge="1">
          <mxGeometry width="50" height="50" relative="1" as="geometry">
            <Array as="points">
              <mxPoint x="439" y="-170" />
              <mxPoint x="437" y="-170" />
              <mxPoint x="437" y="-660" />
              <mxPoint x="442" y="-660" />
            </Array>
            <mxPoint x="210" y="100" as="sourcePoint" />
          </mxGeometry>
        </mxCell>
        <mxCell id="label72" value="1" style="edgeLabel;resizable=0;html=1;align=left;verticalAlign=top;strokeColor=default;" parent="edge12" vertex="1" connectable="0">
          <mxGeometry x="234" y="26" as="geometry" />
        </mxCell>
        <mxCell id="label77" value="interagencyQueryRepository" style="edgeLabel;resizable=0;html=1;align=left;verticalAlign=top;strokeColor=default;" parent="edge12" vertex="1" connectable="0">
          <mxGeometry x="460" y="-110" as="geometry" />
        </mxCell>
        <mxCell id="edge1" value="" style="html=1;rounded=1;edgeStyle=orthogonalEdgeStyle;dashed=0;startArrow=diamondThinstartSize=12;endArrow=openThin;endSize=12;strokeColor=#595959;exitX=0.311;exitY=-0.003;exitDx=0;exitDy=0;entryX=1.000;entryY=0.500;entryDx=0;entryDy=0;exitPerimeter=0;" parent="1" source="node0" target="node2" edge="1">
          <mxGeometry width="50" height="50" relative="1" as="geometry">
            <Array as="points">
              <mxPoint x="404" y="-130" />
              <mxPoint x="420" y="-130" />
              <mxPoint x="420" y="-571" />
            </Array>
          </mxGeometry>
        </mxCell>
        <mxCell id="label11" value="personService" style="edgeLabel;resizable=0;html=1;align=left;verticalAlign=top;strokeColor=default;" parent="edge1" vertex="1" connectable="0">
          <mxGeometry x="390" y="-600" as="geometry" />
        </mxCell>
        <mxCell id="edge11" value="" style="html=1;rounded=1;edgeStyle=orthogonalEdgeStyle;dashed=0;startArrow=diamondThinstartSize=12;endArrow=openThin;endSize=12;strokeColor=#595959;exitX=1.000;exitY=0.741;exitDx=0;exitDy=0;entryX=0.000;entryY=0.500;entryDx=0;entryDy=0;" parent="1" source="node0" target="node7" edge="1">
          <mxGeometry width="50" height="50" relative="1" as="geometry">
            <Array as="points">
              <mxPoint x="857" y="628" />
              <mxPoint x="857" y="1287" />
            </Array>
          </mxGeometry>
        </mxCell>
        <mxCell id="label66" value="1" style="edgeLabel;resizable=0;html=1;align=left;verticalAlign=top;strokeColor=default;" parent="edge11" vertex="1" connectable="0">
          <mxGeometry x="773" y="609" as="geometry" />
        </mxCell>
        <mxCell id="label70" value="1" style="edgeLabel;resizable=0;html=1;align=left;verticalAlign=top;strokeColor=default;" parent="edge11" vertex="1" connectable="0">
          <mxGeometry x="846" y="1080" as="geometry" />
        </mxCell>
        <mxCell id="label71" value="requestDocumentService" style="edgeLabel;resizable=0;html=1;align=left;verticalAlign=top;strokeColor=default;" parent="edge11" vertex="1" connectable="0">
          <mxGeometry x="857" y="1014" as="geometry" />
        </mxCell>
        <mxCell id="edge3" value="" style="html=1;rounded=1;edgeStyle=orthogonalEdgeStyle;dashed=0;startArrow=diamondThinstartSize=12;endArrow=openThin;endSize=12;strokeColor=#595959;exitX=0.998;exitY=0.016;exitDx=0;exitDy=0;exitPerimeter=0;" parent="1" target="node4" edge="1">
          <mxGeometry width="50" height="50" relative="1" as="geometry">
            <Array as="points">
              <mxPoint x="763" y="-180" />
              <mxPoint x="970" y="-180" />
              <mxPoint x="970" y="-310" />
            </Array>
            <mxPoint x="763.0040000000001" y="-44.409999999999975" as="sourcePoint" />
            <mxPoint x="1486.06" y="-329.996" as="targetPoint" />
          </mxGeometry>
        </mxCell>
        <mxCell id="label18" value="1" style="edgeLabel;resizable=0;html=1;align=left;verticalAlign=top;strokeColor=default;" parent="edge3" vertex="1" connectable="0">
          <mxGeometry x="773" y="647" as="geometry" />
        </mxCell>
        <mxCell id="label22" value="1" style="edgeLabel;resizable=0;html=1;align=left;verticalAlign=top;strokeColor=default;" parent="edge3" vertex="1" connectable="0">
          <mxGeometry x="1570" y="-290" as="geometry" />
        </mxCell>
        <mxCell id="label23" value="requestService" style="edgeLabel;resizable=0;html=1;align=left;verticalAlign=top;strokeColor=default;" parent="edge3" vertex="1" connectable="0">
          <mxGeometry x="1170" y="-300" as="geometry" />
        </mxCell>
        <mxCell id="edge2" value="" style="html=1;rounded=1;edgeStyle=orthogonalEdgeStyle;dashed=0;startArrow=diamondThinstartSize=12;endArrow=openThin;endSize=12;strokeColor=#595959;exitX=1.000;exitY=0.888;exitDx=0;exitDy=0;entryX=0.000;entryY=0.500;entryDx=0;entryDy=0;" parent="1" source="node0" target="node3" edge="1">
          <mxGeometry width="50" height="50" relative="1" as="geometry">
            <Array as="points" />
          </mxGeometry>
        </mxCell>
        <mxCell id="label12" value="1" style="edgeLabel;resizable=0;html=1;align=left;verticalAlign=top;strokeColor=default;" parent="edge2" vertex="1" connectable="0">
          <mxGeometry x="773" y="826" as="geometry" />
        </mxCell>
        <mxCell id="label16" value="1" style="edgeLabel;resizable=0;html=1;align=left;verticalAlign=top;strokeColor=default;" parent="edge2" vertex="1" connectable="0">
          <mxGeometry x="861" y="826" as="geometry" />
        </mxCell>
        <mxCell id="label17" value="serviceDocumentService" style="edgeLabel;resizable=0;html=1;align=left;verticalAlign=top;strokeColor=default;" parent="edge2" vertex="1" connectable="0">
          <mxGeometry x="753" y="845" as="geometry" />
        </mxCell>
        <mxCell id="edge6" value="" style="html=1;rounded=1;edgeStyle=orthogonalEdgeStyle;dashed=0;startArrow=diamondThinstartSize=12;endArrow=openThin;endSize=12;strokeColor=#595959;exitX=0.692;exitY=0;exitDx=0;exitDy=0;entryX=0.25;entryY=1;entryDx=0;entryDy=0;exitPerimeter=0;" parent="1" source="node0" target="node5" edge="1">
          <mxGeometry width="50" height="50" relative="1" as="geometry">
            <Array as="points">
              <mxPoint x="603" y="-40" />
            </Array>
          </mxGeometry>
        </mxCell>
        <mxCell id="label36" value="1" style="edgeLabel;resizable=0;html=1;align=left;verticalAlign=top;strokeColor=default;" parent="edge6" vertex="1" connectable="0">
          <mxGeometry x="774" y="-470" as="geometry" />
        </mxCell>
        <mxCell id="label40" value="1" style="edgeLabel;resizable=0;html=1;align=left;verticalAlign=top;strokeColor=default;" parent="edge6" vertex="1" connectable="0">
          <mxGeometry x="896" y="-470" as="geometry" />
        </mxCell>
        <mxCell id="label41" value="serviceService" style="edgeLabel;resizable=0;html=1;align=left;verticalAlign=top;strokeColor=default;" parent="edge6" vertex="1" connectable="0">
          <mxGeometry x="825" y="-451" as="geometry" />
        </mxCell>
        <mxCell id="edge16" value="" style="html=1;rounded=1;edgeStyle=orthogonalEdgeStyle;dashed=0;startArrow=diamondThinstartSize=12;endArrow=openThin;endSize=12;strokeColor=#595959;exitX=0.165;exitY=-0.001;exitDx=0;exitDy=0;entryX=0.892;entryY=1.014;entryDx=0;entryDy=0;entryPerimeter=0;exitPerimeter=0;" parent="1" source="node0" target="node10" edge="1">
          <mxGeometry width="50" height="50" relative="1" as="geometry">
            <Array as="points" />
          </mxGeometry>
        </mxCell>
        <mxCell id="label101" value="xlsxService" style="edgeLabel;resizable=0;html=1;align=left;verticalAlign=top;strokeColor=default;" parent="edge16" vertex="1" connectable="0">
          <mxGeometry x="330" y="-100" as="geometry" />
        </mxCell>
        <mxCell id="edge13" value="" style="html=1;rounded=1;edgeStyle=orthogonalEdgeStyle;dashed=0;startArrow=diamondThinstartSize=12;endArrow=openThin;endSize=12;strokeColor=#595959;exitX=0.469;exitY=0.000;exitDx=0;exitDy=0;entryX=0;entryY=0.502;entryDx=0;entryDy=0;entryPerimeter=0;" parent="1" target="node9" edge="1">
          <mxGeometry width="50" height="50" relative="1" as="geometry">
            <Array as="points">
              <mxPoint x="1080" y="1054" />
              <mxPoint x="1425" y="1054" />
              <mxPoint x="1425" y="860" />
              <mxPoint x="1435" y="860" />
            </Array>
            <mxPoint x="1080.0239999999997" y="1095" as="sourcePoint" />
            <mxPoint x="1640" y="860" as="targetPoint" />
          </mxGeometry>
        </mxCell>
        <mxCell id="label78" value="1" style="edgeLabel;resizable=0;html=1;align=left;verticalAlign=top;strokeColor=default;" parent="edge13" vertex="1" connectable="0">
          <mxGeometry x="1114" y="1065" as="geometry" />
        </mxCell>
        <mxCell id="label83" value="documentService" style="edgeLabel;resizable=0;html=1;align=left;verticalAlign=top;strokeColor=default;" parent="edge13" vertex="1" connectable="0">
          <mxGeometry x="1460" y="920" as="geometry" />
        </mxCell>
        <mxCell id="edge10" value="" style="html=1;rounded=1;edgeStyle=orthogonalEdgeStyle;dashed=0;startArrow=diamondThinstartSize=12;endArrow=openThin;endSize=12;strokeColor=#595959;exitX=1.000;exitY=0.500;exitDx=0;exitDy=0;entryX=0.232;entryY=1.001;entryDx=0;entryDy=0;entryPerimeter=0;" parent="1" target="node4" edge="1">
          <mxGeometry width="50" height="50" relative="1" as="geometry">
            <Array as="points">
              <mxPoint x="1450" y="1295" />
              <mxPoint x="1450" y="-92" />
              <mxPoint x="1570" y="-92" />
            </Array>
            <mxPoint x="1383" y="1295.5" as="sourcePoint" />
            <mxPoint x="1574.1080000000002" y="-120" as="targetPoint" />
          </mxGeometry>
        </mxCell>
        <mxCell id="label60" value="1" style="edgeLabel;resizable=0;html=1;align=left;verticalAlign=top;strokeColor=default;" parent="edge10" vertex="1" connectable="0">
          <mxGeometry x="1388" y="1268" as="geometry" />
        </mxCell>
        <mxCell id="label65" value="requestService" style="edgeLabel;resizable=0;html=1;align=left;verticalAlign=top;strokeColor=default;" parent="edge10" vertex="1" connectable="0">
          <mxGeometry x="1460" y="-110" as="geometry" />
        </mxCell>
        <mxCell id="edge9" value="" style="html=1;rounded=1;edgeStyle=orthogonalEdgeStyle;dashed=0;startArrow=diamondThinstartSize=12;endArrow=openThin;endSize=12;strokeColor=#595959;exitX=0.500;exitY=0.000;exitDx=0;exitDy=0;entryX=0.500;entryY=1.000;entryDx=0;entryDy=0;" parent="1" source="node7" target="node3" edge="1">
          <mxGeometry width="50" height="50" relative="1" as="geometry">
            <Array as="points" />
          </mxGeometry>
        </mxCell>
        <mxCell id="label54" value="1" style="edgeLabel;resizable=0;html=1;align=left;verticalAlign=top;strokeColor=default;" parent="edge9" vertex="1" connectable="0">
          <mxGeometry x="1129" y="1063" as="geometry" />
        </mxCell>
        <mxCell id="label58" value="1" style="edgeLabel;resizable=0;html=1;align=left;verticalAlign=top;strokeColor=default;" parent="edge9" vertex="1" connectable="0">
          <mxGeometry x="1129" y="1018" as="geometry" />
        </mxCell>
        <mxCell id="label59" value="serviceDocumentService" style="edgeLabel;resizable=0;html=1;align=left;verticalAlign=top;strokeColor=default;" parent="edge9" vertex="1" connectable="0">
          <mxGeometry x="1140" y="1010" as="geometry" />
        </mxCell>
        <mxCell id="edge5" value="" style="html=1;rounded=1;edgeStyle=orthogonalEdgeStyle;dashed=0;startArrow=diamondThinstartSize=12;endArrow=openThin;endSize=12;strokeColor=#595959;exitX=1.000;exitY=0.500;exitDx=0;exitDy=0;entryX=0.004;entryY=0.585;entryDx=0;entryDy=0;entryPerimeter=0;" parent="1" source="node5" target="node4" edge="1">
          <mxGeometry width="50" height="50" relative="1" as="geometry">
            <Array as="points">
              <mxPoint x="943" y="-450" />
              <mxPoint x="1210" y="-450" />
              <mxPoint x="1210" y="-521" />
            </Array>
            <mxPoint x="1630" y="210" as="targetPoint" />
          </mxGeometry>
        </mxCell>
        <mxCell id="label30" value="1" style="edgeLabel;resizable=0;html=1;align=left;verticalAlign=top;strokeColor=default;" parent="edge5" vertex="1" connectable="0">
          <mxGeometry x="1373" y="-470" as="geometry" />
        </mxCell>
        <mxCell id="label34" value="1" style="edgeLabel;resizable=0;html=1;align=left;verticalAlign=top;strokeColor=default;" parent="edge5" vertex="1" connectable="0">
          <mxGeometry x="1373" y="-240" as="geometry" />
        </mxCell>
        <mxCell id="label35" value="requestService" style="edgeLabel;resizable=0;html=1;align=left;verticalAlign=top;strokeColor=default;" parent="edge5" vertex="1" connectable="0">
          <mxGeometry x="1110" y="-520" as="geometry" />
        </mxCell>
      </root>
    </mxGraphModel>
  </diagram>
</mxfile>
